<?xml version="1.0" standalone="no"?>
<!DOCTYPE svg PUBLIC "-//W3C//DTD SVG 20010904//EN"
 "http://www.w3.org/TR/2001/REC-SVG-20010904/DTD/svg10.dtd">
<svg version="1.0" xmlns="http://www.w3.org/2000/svg"
 width="192.000000pt" height="192.000000pt" viewBox="0 0 192.000000 192.000000"
 preserveAspectRatio="xMidYMid meet">
<metadata>
Created by potrace 1.14, written by Peter Selinger 2001-2017
</metadata>
<g transform="translate(0.000000,192.000000) scale(0.100000,-0.100000)"
fill="#000000" stroke="none">
<path d="M180 1901 c-72 -30 -152 -113 -164 -171 -1 -3 -4 -10 -8 -16 -4 -6
-6 -46 -5 -90 3 -90 23 -138 81 -196 33 -33 98 -72 121 -73 6 0 15 -3 20 -6
14 -8 103 -5 145 5 71 17 149 86 181 159 61 142 10 293 -127 373 -62 37 -176
44 -244 15z"/>
<path d="M850 1901 c-235 -95 -242 -422 -12 -532 47 -22 165 -34 187 -19 6 4
23 10 38 14 16 4 34 11 40 17 7 5 24 18 39 29 36 27 84 100 93 141 13 56 14
139 2 139 -6 0 -8 3 -4 6 19 20 -55 139 -106 169 -17 10 -34 21 -37 25 -11 13
-90 30 -141 29 -30 0 -74 -8 -99 -18z"/>
<path d="M1550 1914 c-138 -54 -203 -140 -215 -286 -1 -16 2 -28 6 -28 5 0 6
-7 3 -15 -9 -22 39 -118 81 -159 83 -84 220 -105 328 -53 140 69 201 237 135
377 -51 109 -130 162 -247 167 -42 1 -83 0 -91 -3z"/>
<path d="M195 1237 c-45 -15 -111 -63 -136 -100 -13 -17 -27 -35 -32 -38 -5
-3 -8 -10 -8 -15 0 -5 -5 -25 -10 -45 -11 -34 -8 -119 4 -168 7 -27 66 -121
76 -121 4 0 17 -9 29 -21 24 -21 92 -54 92 -43 0 4 6 2 13 -4 23 -20 132 -7
193 23 30 15 58 33 61 41 3 8 10 14 17 14 10 0 57 71 62 95 2 6 7 24 12 42 15
48 7 133 -18 186 -49 104 -154 170 -264 166 -33 -1 -74 -7 -91 -12z"/>
<path d="M882 1239 c-13 -5 -27 -7 -31 -4 -5 2 -17 -5 -29 -15 -12 -11 -24
-20 -28 -20 -12 0 -68 -63 -93 -102 -12 -21 -20 -38 -16 -38 3 0 1 -9 -5 -21
-20 -37 -13 -131 13 -190 28 -61 73 -119 93 -119 8 0 14 -4 14 -9 0 -5 11 -12
25 -15 14 -4 25 -11 25 -16 0 -5 7 -7 15 -4 8 4 21 2 28 -4 14 -12 106 -12
113 -1 2 5 11 6 19 3 20 -8 108 42 144 81 102 113 103 275 1 391 -33 37 -84
73 -109 77 -11 2 -24 6 -27 10 -10 10 -125 7 -152 -4z"/>
<path d="M1535 1237 c-91 -36 -149 -93 -178 -175 -40 -112 -15 -222 70 -307
34 -34 88 -66 104 -62 3 1 12 -3 20 -9 13 -11 110 -11 156 -1 86 21 176 113
200 207 16 58 2 190 -20 190 -4 0 -6 4 -3 9 8 12 -92 121 -110 121 -8 0 -14 5
-14 12 0 6 -3 9 -6 6 -3 -4 -21 0 -39 8 -41 17 -138 17 -180 1z"/>
<path d="M920 580 c0 -6 -4 -9 -9 -5 -16 9 -99 -29 -143 -66 -63 -53 -98 -129
-98 -214 -1 -77 14 -121 63 -187 20 -27 88 -78 111 -83 6 -1 20 -6 31 -11 31
-13 146 -9 180 6 17 7 32 14 35 14 10 2 85 56 78 56 -4 0 4 12 18 27 13 14 27
37 30 50 4 13 9 23 13 23 9 0 14 42 14 105 -1 56 -5 74 -26 125 -15 33 -87
118 -87 103 0 -5 -4 -3 -8 3 -9 14 -72 47 -72 38 0 -4 -6 -2 -12 3 -7 5 -33
11 -58 12 -25 2 -48 5 -52 8 -5 2 -8 -1 -8 -7z"/>
<path d="M1619 586 c-3 -3 -22 -8 -42 -10 -20 -3 -46 -10 -57 -16 -11 -6 -20
-8 -20 -5 0 5 -17 -8 -76 -58 -35 -30 -73 -99 -80 -144 -2 -16 -5 -39 -7 -53
-5 -30 14 -103 37 -148 18 -34 86 -110 86 -95 0 4 4 4 8 -2 23 -32 76 -47 162
-48 109 -1 206 57 252 151 29 60 29 64 30 142 1 77 -24 139 -80 195 -39 39
-105 78 -116 68 -3 -4 -6 -1 -6 6 0 8 -7 10 -20 6 -12 -4 -20 -2 -20 5 0 7 -6
8 -19 0 -13 -7 -20 -7 -23 1 -2 6 -6 8 -9 5z"/>
<path d="M205 570 c-3 -5 -19 -11 -35 -15 -17 -4 -30 -11 -30 -16 0 -5 -3 -8
-7 -7 -18 6 -77 -62 -105 -120 -28 -57 -30 -70 -26 -136 10 -156 123 -266 277
-271 36 -1 71 0 76 4 6 3 19 7 30 8 11 2 22 8 23 13 2 6 10 10 18 10 28 0 121
100 129 140 1 3 6 21 12 40 20 69 0 186 -40 237 -45 57 -136 121 -151 106 -3
-4 -6 -2 -6 4 0 13 -157 15 -165 3z"/>
</g>
</svg>
